<svg viewBox="0 0 207.051 434" xmlns="http://www.w3.org/2000/svg" xmlns:xlink="http://www.w3.org/1999/xlink" width="207.050781" height="434.000000" fill="none" customFrame="#000000">
	<g id="Сочетание 2">
		<path id="" d="M3.61328 35.2031L27.832 35.2031L39.0625 135.984L40.332 159.52L42.7734 159.52L45.1172 133.055L63.0859 35.2031L83.3008 35.2031L100.488 133.055L102.441 159.52L104.98 159.52L106.152 135.984L116.406 35.2031L140.723 35.2031L117.383 202L91.6992 202L77.9297 121.824L73.6328 86.9609L71.6797 86.9609L67.4805 121.824L53.0273 202L27.6367 202L3.61328 35.2031Z" fill="rgb(255,255,255)" fill-rule="nonzero" />
		<path id="" d="M132.195 322.465C129.591 322.465 126.775 322.253 123.748 321.83C120.721 321.407 117.693 320.512 114.666 319.145C111.639 317.777 108.742 315.841 105.975 313.334C103.208 310.827 100.766 307.523 98.6504 303.422C96.5345 299.32 94.8418 294.258 93.5723 288.236C92.3027 282.214 91.668 275.036 91.668 266.703L91.668 207.621C91.668 199.223 92.319 192.045 93.6211 186.088C94.9232 180.131 96.6484 175.118 98.7969 171.049C100.945 166.98 103.419 163.741 106.219 161.332C109.018 158.923 111.915 157.084 114.91 155.814C117.905 154.545 120.883 153.715 123.846 153.324C126.808 152.934 129.559 152.738 132.098 152.738C138.738 152.738 144.288 153.666 148.748 155.521C153.208 157.377 156.788 159.916 159.49 163.139C162.192 166.361 164.113 170.121 165.252 174.418C166.391 178.715 166.961 183.272 166.961 188.09C166.961 191.671 166.782 194.975 166.424 198.002C166.066 201.029 165.529 204.366 164.812 208.012L144.305 208.012L144.305 199.516C144.305 190.336 143.296 183.467 141.277 178.91C139.259 174.353 136.297 172.074 132.391 172.074C130.047 172.074 127.996 172.53 126.238 173.441C124.48 174.353 123.016 175.899 121.844 178.08C120.672 180.261 119.777 183.142 119.158 186.723C118.54 190.303 118.23 194.763 118.23 200.102L118.23 276.273C118.23 281.482 118.475 285.811 118.963 289.262C119.451 292.712 120.249 295.479 121.355 297.562C122.462 299.646 123.911 301.127 125.701 302.006C127.492 302.885 129.656 303.324 132.195 303.324C133.823 303.324 135.385 302.95 136.883 302.201C138.38 301.452 139.699 300.281 140.838 298.686C141.977 297.091 142.889 295.072 143.572 292.631C144.256 290.189 144.598 287.309 144.598 283.988L144.598 267.68L167.742 267.68L167.742 283.109C167.742 296.521 164.682 306.417 158.562 312.797C152.443 319.177 143.654 322.4 132.195 322.465Z" fill="rgb(255,255,255)" fill-rule="nonzero" />
		<path id="" d="M144.258 267.203L206.074 267.203L206.074 287.125L169.551 287.125L169.551 337.027L197.773 337.027L197.773 356.949L169.551 356.949L169.551 414.078L207.051 414.078L207.051 434L144.258 434L144.258 267.203Z" fill="rgb(255,255,255)" fill-rule="nonzero" />
	</g>
</svg>
