<!-- icon666.com - MILLIONS OF FREE VECTOR ICONS --><svg viewBox="0 0 32 32" xmlns="http://www.w3.org/2000/svg"><g id="cellphone" fill-rule="evenodd"><path d="m16.8 20.647a.4.4 0 0 1 -.37-.006s-4.425-2.4-5.1-7.291a.4.4 0 0 1 .117-.341l1.891-1.846-1.778-3.6-2.921 1.758c.072 1.616.939 11.573 11.38 15.4l2.336-2.336-3.011-3.01z" fill="#000000" style="fill: rgb(0, 0, 0);"></path><path d="m27.76 1.6h-23.52a2.641 2.641 0 0 0 -2.64 2.64v23.52a2.641 2.641 0 0 0 2.64 2.64h23.52a2.641 2.641 0 0 0 2.64-2.64v-23.52a2.641 2.641 0 0 0 -2.64-2.64zm-10.272 8.45a3.851 3.851 0 0 1 3.85 3.849.4.4 0 0 1 -.8 0 3.051 3.051 0 0 0 -3.05-3.049.4.4 0 1 1 0-.8zm-1.149 2.3a2.7 2.7 0 0 1 2.7 2.7.4.4 0 1 1 -.8 0 1.9 1.9 0 0 0 -1.9-1.9.4.4 0 0 1 0-.8zm6.861 10.32-2.8 2.8a.4.4 0 0 1 -.416.094c-12.159-4.295-12.151-16.464-12.151-16.464a.4.4 0 0 1 .194-.343l3.5-2.1a.4.4 0 0 1 .564.166l2.1 4.246a.4.4 0 0 1 -.08.464l-1.951 1.905a9.753 9.753 0 0 0 4.485 6.4l2.6-1.3a.4.4 0 0 1 .462.075l3.5 3.5a.4.4 0 0 1 -.007.557zm.035-9.521a.4.4 0 0 1 -.4-.4 4.2 4.2 0 0 0 -4.2-4.2.4.4 0 0 1 0-.8 5 5 0 0 1 5 5 .4.4 0 0 1 -.397.4z" fill="#000000" style="fill: rgb(0, 0, 0);"></path></g></svg>